<svg width="26" height="26" viewBox="0 0 26 26" fill="none" xmlns="http://www.w3.org/2000/svg">
<path d="M8.42873 1.05477C6.90002 1.20947 5.29159 1.77669 4.08644 2.58299C2.19665 3.85807 1.11811 5.62068 1.01025 7.63174C0.986808 8.06302 1.00088 8.20834 1.08059 8.53648C1.31037 9.44123 1.97625 10.1444 2.87191 10.4257C3.10168 10.496 3.35959 10.5288 3.91293 10.5475L4.64446 10.5757L4.62102 10.9085C4.56006 11.6914 4.98209 12.432 5.69487 12.7883C5.87775 12.8774 6.06532 12.9524 6.1169 12.9524C6.1638 12.9524 6.21538 12.9805 6.22945 13.018C6.24351 13.0508 6.02781 15.0384 5.75114 17.4339C5.27752 21.5451 5.25407 21.8123 5.30096 22.192C5.45102 23.4202 6.2951 24.4422 7.49087 24.85L7.86601 24.9766H9.50727H11.1485L11.5284 24.8453C12.3115 24.5828 13.0242 23.964 13.3759 23.2468C13.6245 22.7452 13.7183 22.3514 13.7183 21.8357C13.7183 21.6014 13.5025 19.5622 13.2399 17.2933C12.9773 15.0291 12.7663 13.1305 12.7757 13.079C12.7851 13.0133 12.8507 12.9664 12.9773 12.9289C13.873 12.6617 14.4873 11.7523 14.3841 10.8476L14.3513 10.5757L15.0969 10.5522C15.73 10.5288 15.8941 10.5054 16.1801 10.4069C16.6491 10.2428 16.9164 10.0788 17.2446 9.74593C17.7745 9.20684 17.9949 8.63493 17.9902 7.79581C17.9808 6.29572 17.3712 4.88001 16.213 3.67993C14.3513 1.73919 11.4252 0.750065 8.42873 1.05477ZM11.0313 2.5408C13.0571 2.89707 14.7358 3.87682 15.7253 5.28316C16.2036 5.95351 16.4756 6.67074 16.5694 7.46767C16.6444 8.10989 16.5694 8.39585 16.2505 8.73806C15.8519 9.16465 16.4287 9.13183 9.48382 9.13183H3.36428L3.09699 9.00057C2.4827 8.70056 2.29981 8.16615 2.47332 7.18171C2.64682 6.17853 3.10168 5.3441 3.92231 4.53311C5.06181 3.40335 6.70775 2.658 8.52251 2.45173C9.11805 2.3861 10.4123 2.43298 11.0313 2.5408ZM12.9492 10.8147C13.0196 11.1335 12.982 11.2742 12.7851 11.4523C12.6069 11.607 12.3724 11.6398 12.1239 11.5414C11.6925 11.3773 11.0829 11.4054 10.6327 11.6117C10.5061 11.6726 10.2435 11.8508 10.0559 12.0101C9.7558 12.2633 9.69015 12.2961 9.51665 12.2961C9.30094 12.2961 9.20246 12.2445 8.86014 11.9398C8.41466 11.546 7.81443 11.3632 7.24702 11.4523C7.08759 11.4804 6.90002 11.5226 6.83437 11.546C6.53894 11.6586 6.21069 11.5554 6.08408 11.3117C5.99967 11.1476 5.99498 11.0445 6.06532 10.7679L6.1169 10.5616H9.50727H12.8929L12.9492 10.8147ZM8.08172 13.1211C8.24584 13.2665 8.51782 13.454 8.68664 13.5337C8.97269 13.6696 9.02427 13.679 9.50727 13.679C9.99495 13.679 10.0418 13.6696 10.3279 13.529C10.4967 13.4446 10.7687 13.2618 10.9375 13.1165C11.2001 12.8914 11.3126 12.8164 11.3126 12.8727C11.3126 12.8914 12.2786 21.3201 12.3162 21.6435C12.3865 22.253 12.0442 22.9655 11.5143 23.303C11.0829 23.5749 10.9047 23.5984 9.4041 23.5843C8.11923 23.5702 8.03952 23.5655 7.78629 23.4624C7.43929 23.3218 7.05476 22.9702 6.88595 22.642C6.61397 22.1029 6.60928 22.2436 7.15793 17.4761C7.69251 12.8164 7.68782 12.8586 7.74409 12.8586C7.76285 12.8586 7.9129 12.9758 8.08172 13.1211Z" fill="#FCFBF7" stroke="#FCFBF7" stroke-width="0.5"/>
<path d="M18.8296 11.2647C16.7757 11.4991 15.0594 12.6429 14.3701 14.2274C14.145 14.7477 14.0699 15.179 14.0887 15.765C14.1028 16.1916 14.1262 16.2947 14.2434 16.5385C14.4216 16.9088 14.7546 17.237 15.1485 17.4198C15.4627 17.5698 15.4627 17.5698 16.3443 17.5839L17.2211 17.5979V17.7245C17.2211 17.7901 17.0945 18.9668 16.9351 20.3356C16.6725 22.6326 16.6537 22.8436 16.7053 23.1389C16.8601 24.0202 17.5775 24.7655 18.431 24.9484C18.7405 25.014 20.2598 25.0187 20.6021 24.9531C20.9257 24.8921 21.3618 24.6812 21.6244 24.4515C22.0652 24.0764 22.3794 23.392 22.3794 22.8201C22.3794 22.6607 22.2528 21.4325 22.098 20.0871C21.9433 18.7464 21.8167 17.6401 21.8167 17.626C21.8167 17.612 22.2246 17.5932 22.7217 17.5839C23.5845 17.5698 23.6314 17.5651 23.8893 17.4432C24.2035 17.2979 24.5787 16.9604 24.7475 16.6791C25.0617 16.1353 25.0851 15.404 24.8084 14.5462C24.2973 12.9523 22.6701 11.6772 20.7147 11.335C20.2082 11.246 19.2751 11.2131 18.8296 11.2647ZM20.5787 12.7461C21.0758 12.8445 21.6291 13.0554 22.023 13.2898C22.4919 13.5617 23.1203 14.204 23.3079 14.593C23.6596 15.3243 23.683 15.9666 23.3688 16.14C23.3079 16.1728 22.0089 16.1869 19.5236 16.1869H15.7768L15.6315 16.065C15.4955 15.9525 15.4861 15.9244 15.4861 15.629C15.4861 14.204 16.9773 12.9148 18.8999 12.671C19.322 12.6148 20.1332 12.6523 20.5787 12.7461ZM20.3864 17.6495C20.4239 17.7479 20.9726 22.5998 20.9726 22.8107C20.9726 23.0826 20.7897 23.3733 20.5365 23.4952C20.3536 23.5842 20.2504 23.5936 19.5377 23.5936C18.6655 23.5936 18.4638 23.542 18.2622 23.2936C18.0418 23.0076 18.0418 23.0264 18.3419 20.3731C18.5013 19.0136 18.6373 17.8276 18.6514 17.7432L18.6795 17.5932H19.5236C20.1567 17.5932 20.3724 17.6073 20.3864 17.6495Z" fill="#FCFBF7" stroke="#FCFBF7" stroke-width="0.5"/>
</svg>
