<svg width="26" height="26" viewBox="0 0 26 26" fill="none" xmlns="http://www.w3.org/2000/svg">
<path d="M7.7688 7.89897H7.9188V7.74897V3.90508C7.9188 1.83083 9.59773 0.15 11.6688 0.15H14.2987C16.3698 0.15 18.0487 1.83083 18.0487 3.90508V7.74897V7.89897H18.1987H22.1C24.1711 7.89897 25.85 9.5798 25.85 11.654V14.2874C25.85 16.3616 24.1711 18.0424 22.1 18.0424H18.1987H18.0487V18.1924V22.0949C18.0487 24.1692 16.3698 25.85 14.2987 25.85H11.6688C9.59773 25.85 7.9188 24.1692 7.9188 22.0949V18.1924V18.0424H7.7688H3.9C1.82893 18.0424 0.15 16.3616 0.15 14.2874V11.654C0.15 9.5798 1.82893 7.89897 3.9 7.89897H7.7688ZM10.2188 9.05066C10.2188 9.68654 9.70337 10.2024 9.0688 10.2024H3.9C3.09947 10.2024 2.45 10.8515 2.45 11.654V14.2874C2.45 15.0886 3.09937 15.7391 3.9 15.7391H9.0688C9.70347 15.7391 10.2188 16.2537 10.2188 16.8908V22.0949C10.2188 22.8974 10.8669 23.5466 11.6688 23.5466H14.2987C15.0992 23.5466 15.7487 22.8975 15.7487 22.0949V16.8908C15.7487 16.2536 16.2628 15.7391 16.8987 15.7391H22.1C22.9006 15.7391 23.55 15.0886 23.55 14.2874V11.654C23.55 10.8515 22.9005 10.2024 22.1 10.2024H16.8987C16.2629 10.2024 15.7487 9.68664 15.7487 9.05066V3.90508C15.7487 3.10248 15.0992 2.45338 14.2987 2.45338H11.6688C10.8669 2.45338 10.2188 3.10258 10.2188 3.90508V9.05066Z" fill="#353938" stroke="#D9D9D9" stroke-width="0.3"/>
</svg>
